<svg width="17" height="15" viewBox="0 0 17 15" fill="none" xmlns="http://www.w3.org/2000/svg">
<path fill-rule="evenodd" clip-rule="evenodd" d="M0.300049 5.11387C0.300049 2.45062 2.53381 0.400002 5.15576 0.400002C6.50732 0.400002 7.69661 1.06287 8.55005 1.92057C9.40349 1.06287 10.5928 0.400002 11.9443 0.400002C14.5663 0.400002 16.8 2.45062 16.8 5.11387C16.8 6.93823 16.0562 8.54256 15.0258 9.89869C13.9971 11.2525 12.6514 12.4014 11.363 13.3351C10.8709 13.6917 10.3731 14.0206 9.91745 14.2633C9.48961 14.4912 8.99767 14.7 8.55005 14.7C8.10243 14.7 7.61049 14.4912 7.18265 14.2633C6.72702 14.0206 6.22917 13.6917 5.73706 13.3351C4.44867 12.4014 3.10304 11.2525 2.07434 9.89869C1.04385 8.54256 0.300049 6.93823 0.300049 5.11387ZM5.15576 1.87931C3.19533 1.87931 1.71433 3.38732 1.71433 5.11387C1.71433 6.49801 2.27608 7.78669 3.18151 8.97824C4.08872 10.1721 5.30938 11.2255 6.54246 12.1191C7.00906 12.4572 7.44855 12.7449 7.82447 12.9451C8.2282 13.1602 8.46205 13.2207 8.55005 13.2207C8.63805 13.2207 8.8719 13.1602 9.27562 12.9451C9.65155 12.7449 10.091 12.4572 10.5576 12.1191C11.7907 11.2255 13.0114 10.1721 13.9186 8.97824C14.824 7.78669 15.3858 6.49801 15.3858 5.11387C15.3858 3.38732 13.9048 1.87931 11.9443 1.87931C10.8184 1.87931 9.76709 2.58289 9.11064 3.4759C8.97678 3.658 8.76965 3.76471 8.55005 3.76471C8.33045 3.76471 8.12331 3.658 7.98946 3.4759C7.33301 2.58289 6.28168 1.87931 5.15576 1.87931Z" fill="#001231"/>
</svg>
