<svg width="22" height="22" viewBox="0 0 22 22" fill="none" xmlns="http://www.w3.org/2000/svg">
<path fill-rule="evenodd" clip-rule="evenodd" d="M3.30005 9.11387C3.30005 6.45062 5.53381 4.4 8.15576 4.4C9.50732 4.4 10.6966 5.06287 11.55 5.92057C12.4035 5.06287 13.5928 4.4 14.9443 4.4C17.5663 4.4 19.8 6.45062 19.8 9.11387C19.8 10.9382 19.0562 12.5426 18.0258 13.8987C16.9971 15.2525 15.6514 16.4014 14.363 17.3351C13.8709 17.6917 13.3731 18.0206 12.9174 18.2633C12.4896 18.4912 11.9977 18.7 11.55 18.7C11.1024 18.7 10.6105 18.4912 10.1827 18.2633C9.72702 18.0206 9.22917 17.6917 8.73706 17.3351C7.44867 16.4014 6.10304 15.2525 5.07434 13.8987C4.04385 12.5426 3.30005 10.9382 3.30005 9.11387ZM8.15576 5.87931C6.19533 5.87931 4.71433 7.38732 4.71433 9.11387C4.71433 10.498 5.27608 11.7867 6.18151 12.9782C7.08872 14.1721 8.30938 15.2255 9.54246 16.1191C10.0091 16.4572 10.4485 16.7449 10.8245 16.9451C11.2282 17.1602 11.462 17.2207 11.55 17.2207C11.6381 17.2207 11.8719 17.1602 12.2756 16.9451C12.6516 16.7449 13.091 16.4572 13.5576 16.1191C14.7907 15.2255 16.0114 14.1721 16.9186 12.9782C17.824 11.7867 18.3858 10.498 18.3858 9.11387C18.3858 7.38732 16.9048 5.87931 14.9443 5.87931C13.8184 5.87931 12.7671 6.58289 12.1106 7.4759C11.9768 7.658 11.7696 7.76471 11.55 7.76471C11.3305 7.76471 11.1233 7.658 10.9895 7.4759C10.333 6.58289 9.28168 5.87931 8.15576 5.87931Z" fill="#001231"/>
</svg>
