<svg xmlns="http://www.w3.org/2000/svg" width="22" height="22" fill="none" viewBox="0 0 22 22"><path fill="#001231" fill-rule="evenodd" d="M3.30005 9.11386C3.30005 6.45062 5.53381 4.39999 8.15576 4.39999C9.50732 4.39999 10.6966 5.06286 11.55 5.92056C12.4035 5.06286 13.5928 4.39999 14.9443 4.39999C17.5663 4.39999 19.8 6.45062 19.8 9.11386C19.8 10.9382 19.0562 12.5426 18.0258 13.8987C16.9971 15.2525 15.6514 16.4014 14.363 17.3351C13.8709 17.6917 13.3731 18.0206 12.9174 18.2633C12.4896 18.4912 11.9977 18.7 11.55 18.7C11.1024 18.7 10.6105 18.4912 10.1827 18.2633C9.72702 18.0206 9.22917 17.6917 8.73706 17.3351C7.44867 16.4014 6.10304 15.2525 5.07434 13.8987C4.04385 12.5426 3.30005 10.9382 3.30005 9.11386ZM8.15576 5.8793C6.19533 5.8793 4.71433 7.38731 4.71433 9.11386C4.71433 10.498 5.27608 11.7867 6.18151 12.9782C7.08872 14.1721 8.30938 15.2255 9.54246 16.119C10.0091 16.4572 10.4485 16.7449 10.8245 16.9451C11.2282 17.1602 11.462 17.2207 11.55 17.2207C11.6381 17.2207 11.8719 17.1602 12.2756 16.9451C12.6516 16.7449 13.091 16.4572 13.5576 16.119C14.7907 15.2255 16.0114 14.1721 16.9186 12.9782C17.824 11.7867 18.3858 10.498 18.3858 9.11386C18.3858 7.38731 16.9048 5.8793 14.9443 5.8793C13.8184 5.8793 12.7671 6.58289 12.1106 7.4759C11.9768 7.65799 11.7696 7.7647 11.55 7.7647C11.3305 7.7647 11.1233 7.65799 10.9895 7.4759C10.333 6.58289 9.28168 5.8793 8.15576 5.8793Z" clip-rule="evenodd"/><path fill="#001231" d="M8.35 4.8125C5.91675 4.8125 3.84375 6.71853 3.84375 9.19398C3.84375 10.9017 4.60705 12.3394 5.61868 13.5304C6.62683 14.7173 7.9275 15.7135 9.10335 16.5473L11.1321 17.986C11.3543 18.1436 11.6457 18.1436 11.8679 17.986L13.8966 16.5473C15.0725 15.7135 16.3732 14.7173 17.3813 13.5304C18.3929 12.3394 19.1562 10.9017 19.1562 9.19398C19.1562 6.71853 17.0833 4.8125 14.65 4.8125C13.3957 4.8125 12.292 5.42863 11.5 6.22585C10.708 5.42863 9.60429 4.8125 8.35 4.8125Z"/></svg>