<svg width="20" height="20" viewBox="0 0 20 20" fill="none" xmlns="http://www.w3.org/2000/svg">
<path fill-rule="evenodd" clip-rule="evenodd" d="M3.82656 12.7535C1.95334 8.15562 5.33593 3.125 10.3008 3.125H10.5686C14.2817 3.125 17.2917 6.13501 17.2917 9.84804C17.2917 13.9821 13.9404 17.3333 9.80636 17.3333H3.28946C3.02425 17.3333 2.78791 17.1659 2.69989 16.9158C2.61187 16.6656 2.69133 16.3871 2.89811 16.221L4.54102 14.9016C4.61286 14.8439 4.63827 14.7459 4.60351 14.6606L3.82656 12.7535ZM10.3008 4.375C6.22366 4.375 3.44589 8.50613 4.98417 12.2819L5.76112 14.189C6.00445 14.7862 5.82658 15.4724 5.32372 15.8762L5.06585 16.0833H9.80636C13.25 16.0833 16.0417 13.2917 16.0417 9.84804C16.0417 6.82536 13.5913 4.375 10.5686 4.375H10.3008Z" fill="#001231"/>
</svg>
