<svg width="16" height="15" viewBox="0 0 16 15" fill="none" xmlns="http://www.w3.org/2000/svg">
<path fill-rule="evenodd" clip-rule="evenodd" d="M1.82656 9.75353C-0.0466624 5.15562 3.33593 0.125 8.30077 0.125H8.56862C12.2817 0.125 15.2917 3.13501 15.2917 6.84804C15.2917 10.9821 11.9404 14.3333 7.80636 14.3333H1.28946C1.02425 14.3333 0.787914 14.1659 0.699891 13.9158C0.611868 13.6656 0.691326 13.3871 0.898112 13.221L2.54102 11.9016C2.61286 11.8439 2.63827 11.7459 2.60351 11.6606L1.82656 9.75353ZM8.30077 1.375C4.22366 1.375 1.44589 5.50613 2.98417 9.28191L3.76112 11.189C4.00445 11.7862 3.82658 12.4724 3.32372 12.8762L3.06585 13.0833H7.80636C11.25 13.0833 14.0417 10.2917 14.0417 6.84804C14.0417 3.82536 11.5913 1.375 8.56862 1.375H8.30077Z" fill="#001231"/>
</svg>
